<svg xmlns="http://www.w3.org/2000/svg" viewBox="0 0 1024 1024" width="1024" height="1024">
  <!-- taper1: 7 blue/orange/green ribbons, 50% thicker, tapering to points ON circle boundary -->
  <defs>
    <clipPath id="tc1">
      <circle cx="512" cy="512" r="480"/>
    </clipPath>
  </defs>

  <rect width="1024" height="1024" fill="#1C1C2E"/>

  <g clip-path="url(#tc1)">
    <!-- Line 1: y=95, circle edge at x=274/750 -->
    <path d="M274,95 C360,56 400,241 450,371 C485,457 505,473 512,473
             C519,473 539,457 574,371 C624,241 664,56 750,95
             C664,134 624,319 574,449 C539,535 519,551 512,551
             C505,551 485,535 450,449 C400,319 360,134 274,95 Z"
          fill="#2B4F8C" opacity="0.85"/>

    <!-- Line 2: y=235, circle edge at x=120/904 -->
    <path d="M120,235 C310,196 365,341 450,416 C490,463 507,473 512,473
             C517,473 534,463 574,416 C659,341 714,196 904,235
             C714,274 659,419 574,494 C534,541 517,551 512,551
             C507,551 490,541 450,494 C365,419 310,274 120,235 Z"
          fill="#4A90D9" opacity="0.85"/>

    <!-- Line 3: y=380, circle edge at x=51/973 -->
    <path d="M51,380 C265,341 345,401 450,446 C496,467 509,473 512,473
             C515,473 528,467 574,446 C679,401 759,341 973,380
             C759,419 679,479 574,524 C528,545 515,551 512,551
             C509,551 496,545 450,524 C345,479 265,419 51,380 Z"
          fill="#7AB8E8" opacity="0.85"/>

    <!-- Line 4: y=512, circle edge at x=32/992 -->
    <path d="M32,512 C200,473 350,473 450,473 C500,473 512,473 512,473
             C512,473 524,473 574,473 C674,473 824,473 992,512
             C824,551 674,551 574,551 C524,551 512,551 512,551
             C512,551 500,551 450,551 C350,551 200,551 32,512 Z"
          fill="#E8923A" opacity="0.85"/>

    <!-- Line 5: y=644, circle edge at x=51/973 -->
    <path d="M51,644 C265,605 345,545 450,500 C496,479 509,473 512,473
             C515,473 528,479 574,500 C679,545 759,605 973,644
             C759,683 679,623 574,578 C528,557 515,551 512,551
             C509,551 496,557 450,578 C345,623 265,683 51,644 Z"
          fill="#6BC48D" opacity="0.85"/>

    <!-- Line 6: y=789, circle edge at x=120/904 -->
    <path d="M120,789 C310,750 365,605 450,530 C490,483 507,473 512,473
             C517,473 534,483 574,530 C659,605 714,750 904,789
             C714,828 659,683 574,608 C534,561 517,551 512,551
             C507,551 490,561 450,608 C365,683 310,828 120,789 Z"
          fill="#4CAF7D" opacity="0.85"/>

    <!-- Line 7: y=929, circle edge at x=274/750 -->
    <path d="M274,929 C360,890 400,705 450,575 C485,489 505,473 512,473
             C519,473 539,489 574,575 C624,705 664,890 750,929
             C664,968 624,783 574,653 C539,567 519,551 512,551
             C505,551 485,567 450,653 C400,783 360,968 274,929 Z"
          fill="#1B5E3B" opacity="0.85"/>
  </g>
</svg>
