<svg xmlns="http://www.w3.org/2000/svg" viewBox="0 0 1024 1024" width="1024" height="1024">
  <!-- taper1: 7 blue/orange/green ribbons tapering to points ON the circle boundary -->
  <defs>
    <clipPath id="tc1">
      <circle cx="512" cy="512" r="480"/>
    </clipPath>
  </defs>

  <rect width="1024" height="1024" fill="#1C1C2E"/>

  <g clip-path="url(#tc1)">
    <!-- Line 1: y=95, circle edge at x=274/750 -->
    <path d="M274,95 C360,78 400,249 450,379 C485,465 505,486 512,486
             C519,486 539,465 574,379 C624,249 664,78 750,95
             C664,112 624,311 574,441 C539,527 519,538 512,538
             C505,538 485,527 450,441 C400,311 360,112 274,95 Z"
          fill="#3B6CB5" opacity="0.85"/>

    <!-- Line 2: y=235, circle edge at x=120/904 -->
    <path d="M120,235 C310,214 365,349 450,429 C490,476 507,486 512,486
             C517,486 534,476 574,429 C659,349 714,214 904,235
             C714,256 659,411 574,491 C534,538 517,538 512,538
             C507,538 490,538 450,491 C365,411 310,256 120,235 Z"
          fill="#4A90D9" opacity="0.85"/>

    <!-- Line 3: y=380, circle edge at x=51/973 -->
    <path d="M51,380 C265,354 345,414 450,459 C496,480 509,486 512,486
             C515,486 528,480 574,459 C679,414 759,354 973,380
             C759,406 679,466 574,511 C528,532 515,538 512,538
             C509,538 496,532 450,511 C345,466 265,406 51,380 Z"
          fill="#7AB8E8" opacity="0.85"/>

    <!-- Line 4: y=512, circle edge at x=32/992 -->
    <path d="M32,512 C150,486 300,486 420,486 C480,486 512,486 512,486
             C512,486 544,486 604,486 C724,486 874,486 992,512
             C874,538 724,538 604,538 C544,538 512,538 512,538
             C512,538 480,538 420,538 C300,538 150,538 32,512 Z"
          fill="#E8923A" opacity="0.85"/>

    <!-- Line 5: y=644, circle edge at x=51/973 -->
    <path d="M51,644 C265,618 345,558 450,513 C496,492 509,486 512,486
             C515,486 528,492 574,513 C679,558 759,618 973,644
             C759,670 679,620 574,565 C528,544 515,538 512,538
             C509,538 496,544 450,565 C345,620 265,670 51,644 Z"
          fill="#6BC48D" opacity="0.85"/>

    <!-- Line 6: y=789, circle edge at x=120/904 -->
    <path d="M120,789 C310,763 365,618 450,538 C490,496 507,486 512,486
             C517,486 534,496 574,538 C659,618 714,763 904,789
             C714,815 659,670 574,590 C534,538 517,538 512,538
             C507,538 490,538 450,590 C365,670 310,815 120,789 Z"
          fill="#4CAF7D" opacity="0.85"/>

    <!-- Line 7: y=929, circle edge at x=274/750 -->
    <path d="M274,929 C360,903 400,718 450,588 C485,502 505,486 512,486
             C519,486 539,502 574,588 C624,718 664,903 750,929
             C664,955 624,770 574,640 C539,554 519,538 512,538
             C505,538 485,554 450,640 C400,770 360,955 274,929 Z"
          fill="#2E7D55" opacity="0.85"/>
  </g>
</svg>
