<svg xmlns="http://www.w3.org/2000/svg" viewBox="0 0 1024 1024" width="1024" height="1024">
  <!-- k10: 7 lines, full rainbow spectrum top to bottom -->
  <rect width="1024" height="1024" rx="224" fill="#1C1C2E"/>

  <path d="M120 100 Q300 100 440 380 Q500 512 560 512 Q660 512 900 180" fill="none" stroke="#E84A4A" stroke-width="40" stroke-linecap="round" opacity="0.85"/>
  <path d="M100 230 Q290 230 440 430 Q500 512 560 512 Q660 512 900 310" fill="none" stroke="#E8923A" stroke-width="40" stroke-linecap="round" opacity="0.85"/>
  <path d="M90  370 Q280 370 440 475 Q500 512 560 512 Q660 512 900 420" fill="none" stroke="#E8D44A" stroke-width="40" stroke-linecap="round" opacity="0.85"/>

  <path d="M80  512 Q300 512 440 512 Q560 512 900 512" fill="none" stroke="#4CAF7D" stroke-width="40" stroke-linecap="round" opacity="0.85"/>

  <path d="M90  654 Q280 654 440 549 Q500 512 560 512 Q660 512 900 604" fill="none" stroke="#4A90D9" stroke-width="40" stroke-linecap="round" opacity="0.85"/>
  <path d="M100 794 Q290 794 440 594 Q500 512 560 512 Q660 512 900 714" fill="none" stroke="#6A5ACD" stroke-width="40" stroke-linecap="round" opacity="0.85"/>
  <path d="M120 924 Q300 924 440 644 Q500 512 560 512 Q660 512 900 844" fill="none" stroke="#9B59B6" stroke-width="40" stroke-linecap="round" opacity="0.85"/>
</svg>
