<svg xmlns="http://www.w3.org/2000/svg" viewBox="0 0 1024 1024" width="1024" height="1024">
  <!-- s3: 9 white lines, staggered, opacity fade -->
  <rect width="1024" height="1024" rx="224" fill="#1C1C2E"/>

  <path d="M320 80  Q390 80  460 360 Q500 512 560 512 Q660 512 900 120" fill="none" stroke="#FFFFFF" stroke-width="28" stroke-linecap="round" opacity="0.35"/>
  <path d="M265 190 Q350 190 460 400 Q500 512 560 512 Q660 512 900 240" fill="none" stroke="#FFFFFF" stroke-width="28" stroke-linecap="round" opacity="0.45"/>
  <path d="M205 310 Q310 310 460 450 Q500 512 560 512 Q660 512 900 360" fill="none" stroke="#FFFFFF" stroke-width="28" stroke-linecap="round" opacity="0.55"/>
  <path d="M140 420 Q270 420 460 488 Q500 512 560 512 Q660 512 900 450" fill="none" stroke="#FFFFFF" stroke-width="28" stroke-linecap="round" opacity="0.7"/>

  <path d="M80  512 Q300 512 460 512 Q560 512 900 512" fill="none" stroke="#FFFFFF" stroke-width="32" stroke-linecap="round" opacity="1.0"/>

  <path d="M140 604 Q270 604 460 536 Q500 512 560 512 Q660 512 900 574" fill="none" stroke="#FFFFFF" stroke-width="28" stroke-linecap="round" opacity="0.7"/>
  <path d="M205 714 Q310 714 460 574 Q500 512 560 512 Q660 512 900 664" fill="none" stroke="#FFFFFF" stroke-width="28" stroke-linecap="round" opacity="0.55"/>
  <path d="M265 834 Q350 834 460 624 Q500 512 560 512 Q660 512 900 784" fill="none" stroke="#FFFFFF" stroke-width="28" stroke-linecap="round" opacity="0.45"/>
  <path d="M320 944 Q390 944 460 664 Q500 512 560 512 Q660 512 900 904" fill="none" stroke="#FFFFFF" stroke-width="28" stroke-linecap="round" opacity="0.35"/>
</svg>
