<svg xmlns="http://www.w3.org/2000/svg" viewBox="0 0 1024 1024" width="1024" height="1024">
  <!-- s1: 7 lines, blue/orange/green, staggered - middle starts furthest left -->
  <rect width="1024" height="1024" rx="224" fill="#1C1C2E"/>

  <path d="M280 100 Q380 100 460 380 Q500 512 560 512 Q660 512 900 180" fill="none" stroke="#3B6CB5" stroke-width="40" stroke-linecap="round" opacity="0.85"/>
  <path d="M220 220 Q340 220 460 420 Q500 512 560 512 Q660 512 900 300" fill="none" stroke="#4A90D9" stroke-width="40" stroke-linecap="round" opacity="0.85"/>
  <path d="M160 360 Q300 360 460 470 Q500 512 560 512 Q660 512 900 420" fill="none" stroke="#7AB8E8" stroke-width="40" stroke-linecap="round" opacity="0.85"/>

  <path d="M80 512 Q300 512 460 512 Q560 512 900 512" fill="none" stroke="#E8923A" stroke-width="40" stroke-linecap="round" opacity="0.85"/>

  <path d="M160 664 Q300 664 460 554 Q500 512 560 512 Q660 512 900 604" fill="none" stroke="#6BC48D" stroke-width="40" stroke-linecap="round" opacity="0.85"/>
  <path d="M220 804 Q340 804 460 604 Q500 512 560 512 Q660 512 900 724" fill="none" stroke="#4CAF7D" stroke-width="40" stroke-linecap="round" opacity="0.85"/>
  <path d="M280 924 Q380 924 460 644 Q500 512 560 512 Q660 512 900 844" fill="none" stroke="#2E7D55" stroke-width="40" stroke-linecap="round" opacity="0.85"/>
</svg>
