<svg xmlns="http://www.w3.org/2000/svg" viewBox="0 0 1024 1024" width="1024" height="1024">
  <!-- s4: 7 rainbow lines, staggered -->
  <rect width="1024" height="1024" rx="224" fill="#1C1C2E"/>

  <path d="M280 100 Q380 100 460 380 Q500 512 560 512 Q660 512 900 180" fill="none" stroke="#E84A4A" stroke-width="40" stroke-linecap="round" opacity="0.85"/>
  <path d="M220 230 Q340 230 460 430 Q500 512 560 512 Q660 512 900 310" fill="none" stroke="#E8923A" stroke-width="40" stroke-linecap="round" opacity="0.85"/>
  <path d="M160 370 Q300 370 460 475 Q500 512 560 512 Q660 512 900 420" fill="none" stroke="#E8D44A" stroke-width="40" stroke-linecap="round" opacity="0.85"/>

  <path d="M80  512 Q300 512 460 512 Q560 512 900 512" fill="none" stroke="#4CAF7D" stroke-width="40" stroke-linecap="round" opacity="0.85"/>

  <path d="M160 654 Q300 654 460 549 Q500 512 560 512 Q660 512 900 604" fill="none" stroke="#4A90D9" stroke-width="40" stroke-linecap="round" opacity="0.85"/>
  <path d="M220 794 Q340 794 460 594 Q500 512 560 512 Q660 512 900 714" fill="none" stroke="#6A5ACD" stroke-width="40" stroke-linecap="round" opacity="0.85"/>
  <path d="M280 924 Q380 924 460 644 Q500 512 560 512 Q660 512 900 844" fill="none" stroke="#9B59B6" stroke-width="40" stroke-linecap="round" opacity="0.85"/>
</svg>
